<?xml version="1.0" encoding="utf-8"?>
<!-- Generator: Adobe Illustrator 22.1.0, SVG Export Plug-In . SVG Version: 6.00 Build 0)  -->
<svg version="1.1" id="Capa_1" xmlns="http://www.w3.org/2000/svg" xmlns:xlink="http://www.w3.org/1999/xlink" x="0px" y="0px"
	 viewBox="0 0 512 512" style="enable-background:new 0 0 512 512;" xml:space="preserve">
<style type="text/css">
	.st0{fill:#929090;}
</style>
<g>
	<g>
		<g>
			<path class="st0" d="M504,174.2h-40V11.2c0-6.4-3.6-11.6-8-11.6s-8,5.2-8,11.6v23.3H312V11.2c0-6.4-3.6-11.6-8-11.6
				s-8,5.2-8,11.6v163.1h-64V69.4c0-32.2-17.9-58.2-40-58.2s-40,26.1-40,58.2V81c0,6.4,3.6,11.6,8,11.6s8-5.2,8-11.6V69.4
				c0-19.3,10.7-34.9,24-34.9s24,15.6,24,34.9v104.8h-16v-34.9c0-6.4-3.6-11.6-8-11.6H48c-4.4,0-8,5.2-8,11.6v34.9H8
				c-4.4,0-8,5.2-8,11.6v256.2c0,6.4,3.6,11.6,8,11.6h48v46.6c0,6.4,3.6,11.6,8,11.6h384c4.4,0,8-5.2,8-11.6v-46.6h48
				c4.4,0,8-5.2,8-11.6V185.9C512,179.4,508.4,174.2,504,174.2z M312,57.7h136V81H312V57.7z M312,104.3h136v23.3H312V104.3z
				 M312,150.9h136v23.3H312V150.9z M56,150.9h128v23.3H56V150.9z M16,430.5v-233h232v233H16z M440,488.7H72v-34.9h368V488.7z
				 M496,430.5H264v-233h232V430.5z"/>
			<path class="st0" d="M208,267.4c-13.3,0-24,15.6-24,34.9c0,19.3,10.7,34.9,24,34.9s24-15.6,24-34.9
				C232,283,221.3,267.4,208,267.4z M208,314c-4.4,0-8-5.2-8-11.6c0-6.4,3.6-11.6,8-11.6s8,5.2,8,11.6C216,308.8,212.4,314,208,314z
				"/>
			<path class="st0" d="M304,337.3c13.3,0,24-15.6,24-34.9c0-19.3-10.7-34.9-24-34.9s-24,15.6-24,34.9
				C280,321.6,290.7,337.3,304,337.3z M304,290.7c4.4,0,8,5.2,8,11.6c0,6.4-3.6,11.6-8,11.6s-8-5.2-8-11.6
				C296,295.9,299.6,290.7,304,290.7z"/>
		</g>
	</g>
</g>
</svg>
