<?xml version="1.0" encoding="utf-8"?>
<!-- Generator: Adobe Illustrator 22.1.0, SVG Export Plug-In . SVG Version: 6.00 Build 0)  -->
<svg version="1.1" id="Capa_1" xmlns="http://www.w3.org/2000/svg" xmlns:xlink="http://www.w3.org/1999/xlink" x="0px" y="0px"
	 viewBox="0 0 512 512" style="enable-background:new 0 0 512 512;" xml:space="preserve">
<style type="text/css">
	.st0{fill:#3EA8A9;}
</style>
<g>
	<g>
		<g>
			<g>
				<path class="st0" d="M503.5,157.5H204.8v-49.2c0-5.4-3.8-9.8-8.5-9.8H76.8c-4.7,0-8.5,4.4-8.5,9.8v49.2h-8.5V19.7H128v29.5h17.1
					V9.8c0-5.4-3.8-9.8-8.5-9.8H51.2c-4.7,0-8.5,4.4-8.5,9.8v147.7H8.5c-4.7,0-8.5,4.4-8.5,9.8v334.8c0,5.4,3.8,9.8,8.5,9.8h494.9
					c4.7,0,8.5-4.4,8.5-9.8V167.4C512,161.9,508.2,157.5,503.5,157.5z M85.3,118.2h102.4v39.4H85.3V118.2z M128,492.3H17.1V216.6
					H128V492.3z M247.5,492.3H145.1V216.6h102.4V492.3z M375.5,492.3h-111V216.6h110.9v275.7H375.5z M494.9,492.3H392.5V216.6h102.4
					V492.3z M494.9,196.9H17.1v-19.7H495v19.7H494.9z"/>
				<rect x="85.3" y="344.6" class="st0" width="34.1" height="19.7"/>
				<rect x="204.8" y="344.6" class="st0" width="34.1" height="19.7"/>
				<rect x="332.8" y="344.6" class="st0" width="34.1" height="19.7"/>
				<rect x="452.3" y="344.6" class="st0" width="34.1" height="19.7"/>
			</g>
		</g>
	</g>
</g>
</svg>
