<?xml version="1.0" encoding="utf-8"?>
<!-- Generator: Adobe Illustrator 22.1.0, SVG Export Plug-In . SVG Version: 6.00 Build 0)  -->
<svg version="1.1" id="Layer_1" xmlns="http://www.w3.org/2000/svg" xmlns:xlink="http://www.w3.org/1999/xlink" x="0px" y="0px"
	 viewBox="0 0 512 512" style="enable-background:new 0 0 512 512;" xml:space="preserve">
<style type="text/css">
	.st0{fill:#3EA8A9;}
</style>
<g>
	<path class="st0" d="M504.5,124.3c4.1,0,7.5-3.4,7.5-7.5V7.5c0-4.1-3.4-7.5-7.5-7.5H146.8c-4.1,0-7.5,3.4-7.5,7.5s3.4,7.5,7.5,7.5
		h101.8v233.5H15V146.8c0-4.1-3.4-7.5-7.5-7.5S0,142.6,0,146.8v357.8c0,4.1,3.4,7.5,7.5,7.5h357.8c4.1,0,7.5-3.4,7.5-7.5
		s-3.4-7.5-7.5-7.5H263.5V263.5H497V497H395.3c-4.1,0-7.5,3.4-7.5,7.5s3.4,7.5,7.5,7.5h109.3c4.1,0,7.5-3.4,7.5-7.5V146.8
		c0-4.1-3.4-7.5-7.5-7.5s-7.5,3.4-7.5,7.5v101.8H263.5V15H497v101.8C497,120.9,500.4,124.3,504.5,124.3z M15,263.5h233.5V497H15
		V263.5z"/>
	<path class="st0" d="M432.6,244.8c4.1,0,7.5-3.4,7.5-7.5v-18.9l26.8-26.8h18.9c4.1,0,7.5-3.4,7.5-7.5s-3.4-7.5-7.5-7.5h-22
		c-2,0-3.9,0.8-5.3,2.2L427.3,210c-1.4,1.4-2.2,3.3-2.2,5.3v22C425.1,241.4,428.4,244.8,432.6,244.8z"/>
	<path class="st0" d="M327.9,244.8c4.1,0,7.5-3.4,7.5-7.5v-22c0-2-0.8-3.9-2.2-5.3L302,178.8c-1.4-1.4-3.3-2.2-5.3-2.2h-22
		c-4.1,0-7.5,3.4-7.5,7.5s3.4,7.5,7.5,7.5h18.9l26.8,26.8v18.9C320.4,241.4,323.8,244.8,327.9,244.8z"/>
	<path class="st0" d="M274.7,86.9h22c2,0,3.9-0.8,5.3-2.2l31.2-31.2c1.4-1.4,2.2-3.3,2.2-5.3v-22c0-4.1-3.4-7.5-7.5-7.5
		s-7.5,3.4-7.5,7.5v18.9l-26.8,26.8h-18.9c-4.1,0-7.5,3.4-7.5,7.5C267.2,83.6,270.6,86.9,274.7,86.9z"/>
	<path class="st0" d="M485.8,71.9h-18.9l-26.8-26.8V26.2c0-4.1-3.4-7.5-7.5-7.5s-7.5,3.4-7.5,7.5v22c0,2,0.8,3.9,2.2,5.3l31.2,31.2
		c1.4,1.4,3.3,2.2,5.3,2.2h22c4.1,0,7.5-3.4,7.5-7.5S489.9,71.9,485.8,71.9z"/>
	<path class="st0" d="M358.6,186.4l4.4-4.4c9.5-9.5,25-9.5,34.5,0l4.4,4.4c1.5,1.5,3.4,2.2,5.3,2.2s3.8-0.7,5.3-2.2l22.4-22.4
		c1.4-1.4,2.2-3.3,2.2-5.3s-0.8-3.9-2.2-5.3l-4.4-4.4c-9.5-9.5-9.5-25,0-34.5l4.4-4.4c1.4-1.4,2.2-3.3,2.2-5.3s-0.8-3.9-2.2-5.3
		l-22.4-22.4c-2.9-2.9-7.7-2.9-10.6,0l-4.4,4.4c-9.5,9.5-25,9.5-34.5,0l-4.4-4.4c-2.9-2.9-7.7-2.9-10.6,0l-22.4,22.4
		c-1.4,1.4-2.2,3.3-2.2,5.3s0.8,3.9,2.2,5.3l4.4,4.4c9.5,9.5,9.5,25,0,34.5l-4.4,4.4c-1.4,1.4-2.2,3.3-2.2,5.3s0.8,3.9,2.2,5.3
		l22.4,22.4C351,189.3,355.7,189.3,358.6,186.4z M341.5,104.8L353.3,93c15.1,14.1,38.7,14.1,53.8,0l11.8,11.8
		c-14.1,15.1-14.1,38.7,0,53.8l-11.8,11.8c-7.6-7.1-17.2-10.6-26.9-10.6s-19.4,3.5-26.9,10.6l-11.8-11.8
		C355.7,143.6,355.7,119.9,341.5,104.8z"/>
	<path class="st0" d="M7.5,124.3c4.1,0,7.5-3.4,7.5-7.5V15h101.8c4.1,0,7.5-3.4,7.5-7.5S120.9,0,116.8,0H7.5C3.4,0,0,3.4,0,7.5
		v109.3C0,120.9,3.4,124.3,7.5,124.3z"/>
	<path class="st0" d="M237.3,176.6h-22c-2,0-3.9,0.8-5.3,2.2L178.8,210c-1.4,1.4-2.2,3.3-2.2,5.3v22c0,4.1,3.4,7.5,7.5,7.5
		s7.5-3.4,7.5-7.5v-18.9l26.8-26.8h18.9c4.1,0,7.5-3.4,7.5-7.5C244.8,179.9,241.4,176.6,237.3,176.6z"/>
	<path class="st0" d="M79.4,244.8c4.1,0,7.5-3.4,7.5-7.5v-22c0-2-0.8-3.9-2.2-5.3l-31.2-31.2c-1.4-1.4-3.3-2.2-5.3-2.2h-22
		c-4.1,0-7.5,3.4-7.5,7.5s3.4,7.5,7.5,7.5h18.9l26.8,26.8v18.9C71.9,241.4,75.3,244.8,79.4,244.8z"/>
	<path class="st0" d="M26.2,86.9h22c2,0,3.9-0.8,5.3-2.2l31.2-31.2c1.4-1.4,2.2-3.3,2.2-5.3v-22c0-4.1-3.4-7.5-7.5-7.5
		s-7.5,3.4-7.5,7.5v18.9L45.1,71.9H26.2c-4.1,0-7.5,3.4-7.5,7.5C18.7,83.6,22.1,86.9,26.2,86.9z"/>
	<path class="st0" d="M184.1,18.7c-4.1,0-7.5,3.4-7.5,7.5v22c0,2,0.8,3.9,2.2,5.3L210,84.7c1.4,1.4,3.3,2.2,5.3,2.2h22
		c4.1,0,7.5-3.4,7.5-7.5s-3.4-7.5-7.5-7.5h-18.9l-26.8-26.8V26.2C191.6,22.1,188.2,18.7,184.1,18.7z"/>
	<path class="st0" d="M153.4,77.1l-4.4,4.4c-9.5,9.5-25,9.5-34.5,0l-4.4-4.4c-2.9-2.9-7.7-2.9-10.6,0L77.1,99.5
		c-1.4,1.4-2.2,3.3-2.2,5.3s0.8,3.9,2.2,5.3l4.4,4.4c9.5,9.5,9.5,25,0,34.5l-4.4,4.4c-1.4,1.4-2.2,3.3-2.2,5.3s0.8,3.9,2.2,5.3
		l22.4,22.4c2.9,2.9,7.7,2.9,10.6,0l4.4-4.4c9.5-9.5,25-9.5,34.5,0l4.4,4.4c1.5,1.5,3.4,2.2,5.3,2.2s3.8-0.7,5.3-2.2l22.4-22.4
		c1.4-1.4,2.2-3.3,2.2-5.3s-0.8-3.9-2.2-5.3L182,149c-9.5-9.5-9.5-25,0-34.5l4.4-4.4c1.4-1.4,2.2-3.3,2.2-5.3s-0.8-3.9-2.2-5.3
		L164,77.1C161,74.2,156.3,74.2,153.4,77.1z M170.5,158.7l-11.8,11.8c-7.6-7.1-17.2-10.6-26.9-10.6s-19.4,3.5-26.9,10.6L93,158.7
		c14.1-15.1,14.1-38.7,0-53.8L104.8,93c15.1,14.1,38.7,14.1,53.8,0l11.8,11.8C156.3,119.9,156.3,143.6,170.5,158.7z"/>
	<path class="st0" d="M485.8,425.1h-22c-2,0-3.9,0.8-5.3,2.2l-31.2,31.2c-1.4,1.4-2.2,3.3-2.2,5.3v22c0,4.1,3.4,7.5,7.5,7.5
		s7.5-3.4,7.5-7.5v-18.9l26.8-26.8h18.9c4.1,0,7.5-3.4,7.5-7.5C493.3,428.4,489.9,425.1,485.8,425.1z"/>
	<path class="st0" d="M327.9,493.3c4.1,0,7.5-3.4,7.5-7.5v-22c0-2-0.8-3.9-2.2-5.3L302,427.3c-1.4-1.4-3.3-2.2-5.3-2.2h-22
		c-4.1,0-7.5,3.4-7.5,7.5s3.4,7.5,7.5,7.5h18.9l26.8,26.8v18.9C320.4,489.9,323.8,493.3,327.9,493.3z"/>
	<path class="st0" d="M274.7,335.4h22c2,0,3.9-0.8,5.3-2.2l31.2-31.2c1.4-1.4,2.2-3.3,2.2-5.3v-22c0-4.1-3.4-7.5-7.5-7.5
		s-7.5,3.4-7.5,7.5v18.9l-26.8,26.8h-18.9c-4.1,0-7.5,3.4-7.5,7.5C267.2,332.1,270.6,335.4,274.7,335.4z"/>
	<path class="st0" d="M432.6,267.2c-4.1,0-7.5,3.4-7.5,7.5v22c0,2,0.8,3.9,2.2,5.3l31.2,31.2c1.4,1.4,3.3,2.2,5.3,2.2h22
		c4.1,0,7.5-3.4,7.5-7.5s-3.4-7.5-7.5-7.5h-18.9l-26.8-26.8v-18.9C440.1,270.6,436.7,267.2,432.6,267.2z"/>
	<path class="st0" d="M358.6,434.9l4.4-4.4c9.5-9.5,25-9.5,34.5,0l4.4,4.4c1.5,1.5,3.4,2.2,5.3,2.2s3.8-0.7,5.3-2.2l22.4-22.4
		c1.4-1.4,2.2-3.3,2.2-5.3s-0.8-3.9-2.2-5.3l-4.4-4.4c-9.5-9.5-9.5-25,0-34.5l4.4-4.4c1.4-1.4,2.2-3.3,2.2-5.3s-0.8-3.9-2.2-5.3
		l-22.4-22.4c-2.9-2.9-7.7-2.9-10.6,0l-4.4,4.4c-9.5,9.5-25,9.5-34.5,0l-4.4-4.4c-2.9-2.9-7.7-2.9-10.6,0L325.6,348
		c-1.4,1.4-2.2,3.3-2.2,5.3s0.8,3.9,2.2,5.3l4.4,4.4c9.5,9.5,9.5,25,0,34.5l-4.4,4.4c-1.4,1.4-2.2,3.3-2.2,5.3s0.8,3.9,2.2,5.3
		l22.4,22.4C351,437.8,355.7,437.8,358.6,434.9z M341.5,353.3l11.8-11.8c15.1,14.1,38.7,14.1,53.8,0l11.8,11.8
		c-14.1,15.1-14.1,38.7,0,53.8L407.2,419c-7.6-7.1-17.2-10.6-26.9-10.6s-19.4,3.5-26.9,10.6l-11.8-11.8
		C355.7,392.1,355.7,368.4,341.5,353.3z"/>
	<path class="st0" d="M237.3,425.1h-22c-2,0-3.9,0.8-5.3,2.2l-31.2,31.2c-1.4,1.4-2.2,3.3-2.2,5.3v22c0,4.1,3.4,7.5,7.5,7.5
		s7.5-3.4,7.5-7.5v-18.9l26.8-26.8h18.9c4.1,0,7.5-3.4,7.5-7.5C244.8,428.4,241.4,425.1,237.3,425.1z"/>
	<path class="st0" d="M53.5,427.3c-1.4-1.4-3.3-2.2-5.3-2.2h-22c-4.1,0-7.5,3.4-7.5,7.5s3.4,7.5,7.5,7.5h18.9l26.8,26.8v18.9
		c0,4.1,3.4,7.5,7.5,7.5s7.5-3.4,7.5-7.5v-22c0-2-0.8-3.9-2.2-5.3L53.5,427.3z"/>
	<path class="st0" d="M26.2,335.4h22c2,0,3.9-0.8,5.3-2.2L84.7,302c1.4-1.4,2.2-3.3,2.2-5.3v-22c0-4.1-3.4-7.5-7.5-7.5
		s-7.5,3.4-7.5,7.5v18.9l-26.8,26.8H26.2c-4.1,0-7.5,3.4-7.5,7.5C18.7,332.1,22.1,335.4,26.2,335.4z"/>
	<path class="st0" d="M237.3,320.4h-18.9l-26.8-26.8v-18.9c0-4.1-3.4-7.5-7.5-7.5s-7.5,3.4-7.5,7.5v22c0,2,0.8,3.9,2.2,5.3
		l31.2,31.2c1.4,1.4,3.3,2.2,5.3,2.2h22c4.1,0,7.5-3.4,7.5-7.5C244.8,323.8,241.4,320.4,237.3,320.4z"/>
	<path class="st0" d="M188.6,407.2c0-2-0.8-3.9-2.2-5.3l-4.4-4.4c-9.5-9.5-9.5-25,0-34.5l4.4-4.4c1.4-1.4,2.2-3.3,2.2-5.3
		s-0.8-3.9-2.2-5.3L164,325.6c-2.9-2.9-7.7-2.9-10.6,0L149,330c-9.5,9.5-25,9.5-34.5,0l-4.4-4.4c-2.9-2.9-7.7-2.9-10.6,0L77.1,348
		c-1.4,1.4-2.2,3.3-2.2,5.3s0.8,3.9,2.2,5.3l4.4,4.4c9.5,9.5,9.5,25,0,34.5l-4.4,4.4c-1.4,1.4-2.2,3.3-2.2,5.3s0.8,3.9,2.2,5.3
		l22.4,22.4c2.9,2.9,7.7,2.9,10.6,0l4.4-4.4c9.5-9.5,25-9.5,34.5,0l4.4,4.4c1.5,1.5,3.4,2.2,5.3,2.2c1.9,0,3.8-0.7,5.3-2.2
		l22.4-22.4C187.8,411.1,188.6,409.2,188.6,407.2z M158.7,419c-7.6-7.1-17.2-10.6-26.9-10.6s-19.4,3.5-26.9,10.6L93,407.2
		c14.1-15.1,14.1-38.7,0-53.8l11.8-11.8c15.1,14.1,38.7,14.1,53.8,0l11.8,11.8c-14.1,15.1-14.1,38.7,0,53.8L158.7,419z"/>
</g>
</svg>
