<?xml version="1.0" encoding="utf-8"?>
<!-- Generator: Adobe Illustrator 22.1.0, SVG Export Plug-In . SVG Version: 6.00 Build 0)  -->
<svg version="1.1" id="Layer_1" xmlns="http://www.w3.org/2000/svg" xmlns:xlink="http://www.w3.org/1999/xlink" x="0px" y="0px"
	 viewBox="0 0 512 512" style="enable-background:new 0 0 512 512;" xml:space="preserve">
<style type="text/css">
	.st0{fill:#929090;}
</style>
<g>
	<path class="st0" d="M502,472.4h-38.8V22.8c0-10.9-4.5-19.8-10-19.8H238.4c-5.5,0-10,8.9-10,19.8c0,10.9,4.5,19.8,10,19.8h6.7v54.3
		h-94.8V42.6h8.2c5.5,0,10-8.9,10-19.8c0-10.9-4.5-19.8-10-19.8H57.2c-5.5,0-10,8.9-10,19.8v449.6H10c-5.5,0-10,8.9-10,19.8
		C0,503.1,4.5,512,10,512H502c5.5,0,10-8.9,10-19.8C512,481.3,507.5,472.4,502,472.4z M393.6,136.5v54.3h-78.9v-54.3H393.6z
		 M357.9,230.4v54.3H283v-54.3H357.9z M265.2,42.6h86.7v54.3h-86.7V42.6z M196.8,136.5h97.8v54.3h-97.8V136.5z M263,230.4v54.3
		h-45.3v-54.3H263z M197.6,230.4v54.3H93.1v-54.3H197.6z M67.3,42.6h63v54.3h-63V42.6z M67.3,136.5h109.5v54.3H67.3V136.5z
		 M67.3,230.4h5.8v54.3h-5.8V230.4z M104,472.4H67.3v-54.3H104V472.4z M67.3,378.5v-54.3h68.1v54.3H67.3z M190.9,472.4h-66.8v-54.3
		h66.8V472.4z M155.4,378.5v-54.3h74.9v54.3H155.4z M273.1,472.4H211v-54.3h62.1V472.4z M250.4,378.5v-54.3h55.7v54.3H250.4z
		 M364.6,472.4h-71.5v-54.3h71.5V472.4z M326.1,378.5v-54.3h85.7v54.3H326.1z M443.1,472.4h-58.5v-54.3h58.5V472.4z M443.1,378.5
		h-11.3v-54.3h11.3V378.5z M443.1,284.6H378v-54.3h65.1V284.6z M443.1,190.8h-29.4v-54.3h29.4V190.8z M443.1,96.9h-71.2V42.6h71.2
		V96.9z"/>
	<path class="st0" d="M189.5,31c1.6,7.7,5.3,12.4,9.3,12.4c1.3,0,2.5-0.5,3.8-1.4c5.1-4.1,7.6-15.6,5.5-25.8l-0.1-0.6
		c-2.1-10.1-7.9-15-13.1-10.9c-5.1,4.1-7.6,15.6-5.5,25.8L189.5,31z"/>
</g>
</svg>
